<svg width="30" height="30" viewBox="0 0 30 30" fill="none" xmlns="http://www.w3.org/2000/svg">
<path d="M2.91663 7.44792C2.91663 5.61272 4.40435 4.125 6.23954 4.125H8.05204C8.55255 4.125 8.95829 4.53075 8.95829 5.03125C8.95829 5.53175 8.55255 5.9375 8.05204 5.9375H6.23954C5.40536 5.9375 4.72913 6.61373 4.72913 7.44792V9.26042C4.72913 9.76092 4.32338 10.1667 3.82288 10.1667C3.32237 10.1667 2.91663 9.76092 2.91663 9.26042V7.44792ZM21.0416 5.03125C21.0416 4.53075 21.4474 4.125 21.9479 4.125H23.7604C25.5956 4.125 27.0833 5.61272 27.0833 7.44792V9.26042C27.0833 9.76092 26.6775 10.1667 26.177 10.1667C25.6766 10.1667 25.2708 9.76092 25.2708 9.26042V7.44792C25.2708 6.61373 24.5946 5.9375 23.7604 5.9375H21.9479C21.4474 5.9375 21.0416 5.53175 21.0416 5.03125ZM3.82288 19.8333C4.32338 19.8333 4.72913 20.2391 4.72913 20.7396V22.5521C4.72913 23.3863 5.40536 24.0625 6.23954 24.0625H8.05204C8.55255 24.0625 8.95829 24.4683 8.95829 24.9688C8.95829 25.4692 8.55255 25.875 8.05204 25.875H6.23954C4.40435 25.875 2.91663 24.3873 2.91663 22.5521V20.7396C2.91663 20.2391 3.32237 19.8333 3.82288 19.8333ZM26.177 19.8333C26.6775 19.8333 27.0833 20.2391 27.0833 20.7396V22.5521C27.0833 24.3873 25.5956 25.875 23.7604 25.875H21.9479C21.4474 25.875 21.0416 25.4692 21.0416 24.9688C21.0416 24.4683 21.4474 24.0625 21.9479 24.0625H23.7604C24.5946 24.0625 25.2708 23.3863 25.2708 22.5521V20.7396C25.2708 20.2391 25.6766 19.8333 26.177 19.8333ZM7.44788 8.95833C7.94838 8.95833 8.35413 9.36408 8.35413 9.86458V20.1354C8.35413 20.6359 7.94838 21.0417 7.44788 21.0417C6.94737 21.0417 6.54163 20.6359 6.54163 20.1354V9.86458C6.54163 9.36408 6.94737 8.95833 7.44788 8.95833ZM13.1875 9.86458C13.1875 9.36408 12.7817 8.95833 12.2812 8.95833C11.7807 8.95833 11.375 9.36408 11.375 9.86458V20.1354C11.375 20.6359 11.7807 21.0417 12.2812 21.0417C12.7817 21.0417 13.1875 20.6359 13.1875 20.1354V9.86458ZM17.1145 8.95833C17.615 8.95833 18.0208 9.36408 18.0208 9.86458V20.1354C18.0208 20.6359 17.615 21.0417 17.1145 21.0417C16.6141 21.0417 16.2083 20.6359 16.2083 20.1354V9.86458C16.2083 9.36408 16.6141 8.95833 17.1145 8.95833ZM22.8541 9.86458C22.8541 9.36408 22.4484 8.95833 21.9479 8.95833C21.4474 8.95833 21.0416 9.36408 21.0416 9.86458V20.1354C21.0416 20.6359 21.4474 21.0417 21.9479 21.0417C22.4484 21.0417 22.8541 20.6359 22.8541 20.1354V9.86458Z" fill="white"/>
</svg>
