<svg width="30" height="30" viewBox="0 0 30 30" fill="none" xmlns="http://www.w3.org/2000/svg">
<g clip-path="url(#clip0_18_120)">
<path d="M5.33333 5.33333H12.5833V12.5833H5.33333V5.33333ZM24.6667 5.33333V12.5833H17.4167V5.33333H24.6667ZM17.4167 18.625H19.8333V16.2083H17.4167V13.7917H19.8333V16.2083H22.25V13.7917H24.6667V16.2083H22.25V18.625H24.6667V22.25H22.25V24.6667H19.8333V22.25H16.2083V24.6667H13.7917V19.8333H17.4167V18.625ZM19.8333 18.625V22.25H22.25V18.625H19.8333ZM5.33333 24.6667V17.4167H12.5833V24.6667H5.33333ZM7.75 7.75V10.1667H10.1667V7.75H7.75ZM19.8333 7.75V10.1667H22.25V7.75H19.8333ZM7.75 19.8333V22.25H10.1667V19.8333H7.75ZM5.33333 13.7917H7.75V16.2083H5.33333V13.7917ZM11.375 13.7917H16.2083V18.625H13.7917V16.2083H11.375V13.7917ZM13.7917 7.75H16.2083V12.5833H13.7917V7.75ZM2.91667 2.91667V7.75H0.5V2.91667C0.5 2.27573 0.754612 1.66104 1.20783 1.20783C1.66104 0.754612 2.27573 0.5 2.91667 0.5L7.75 0.5V2.91667H2.91667ZM27.0833 0.5C27.7243 0.5 28.339 0.754612 28.7922 1.20783C29.2454 1.66104 29.5 2.27573 29.5 2.91667V7.75H27.0833V2.91667H22.25V0.5H27.0833ZM2.91667 22.25V27.0833H7.75V29.5H2.91667C2.27573 29.5 1.66104 29.2454 1.20783 28.7922C0.754612 28.339 0.5 27.7243 0.5 27.0833V22.25H2.91667ZM27.0833 27.0833V22.25H29.5V27.0833C29.5 27.7243 29.2454 28.339 28.7922 28.7922C28.339 29.2454 27.7243 29.5 27.0833 29.5H22.25V27.0833H27.0833Z" fill="black"/>
</g>
<defs>
<clipPath id="clip0_18_120">
<rect width="29" height="29" fill="white" transform="translate(0.5 0.5)"/>
</clipPath>
</defs>
</svg>
