<?xml version="1.0" standalone="no"?>
<!DOCTYPE svg PUBLIC "-//W3C//DTD SVG 20010904//EN"
 "http://www.w3.org/TR/2001/REC-SVG-20010904/DTD/svg10.dtd">
<svg version="1.0" xmlns="http://www.w3.org/2000/svg"
 width="1200.000000pt" height="1200.000000pt" viewBox="0 0 1200.000000 1200.000000"
 preserveAspectRatio="xMidYMid meet">
<metadata>
Created by potrace 1.14, written by Peter Selinger 2001-2017
</metadata>
<g transform="translate(0.000000,1200.000000) scale(0.100000,-0.100000)"
fill="#000000" stroke="none">
<path d="M4588 11995 c-2 -2 -127 -6 -278 -9 -266 -6 -341 -9 -555 -21 -232
-13 -379 -24 -537 -40 -128 -13 -155 -16 -180 -21 -15 -2 -47 -6 -70 -9 -133
-13 -360 -53 -533 -92 -60 -13 -117 -26 -127 -28 -45 -10 -273 -80 -348 -107
-277 -100 -527 -232 -735 -388 -264 -198 -486 -446 -662 -740 -42 -70 -146
-279 -183 -370 -82 -198 -191 -588 -226 -805 -4 -27 -8 -52 -9 -55 -1 -5 -12
-71 -19 -121 -3 -13 -7 -45 -10 -70 -4 -25 -9 -57 -11 -70 -5 -29 -34 -293
-40 -369 -21 -252 -27 -344 -40 -620 -20 -420 -29 -3170 -12 -3750 10 -345 23
-626 31 -716 3 -21 7 -88 11 -148 4 -60 8 -117 10 -125 1 -9 6 -52 10 -96 3
-44 8 -93 10 -110 8 -61 17 -131 21 -160 2 -16 6 -46 8 -65 9 -71 37 -238 57
-335 11 -55 23 -111 25 -125 21 -108 86 -331 139 -480 189 -527 501 -948 940
-1268 49 -35 104 -72 109 -72 3 0 25 -13 49 -30 64 -43 255 -139 382 -192 99
-41 284 -106 310 -109 6 -1 21 -6 34 -11 28 -10 233 -64 271 -71 14 -3 70 -14
125 -26 109 -23 277 -51 340 -57 35 -3 87 -11 135 -19 8 -1 51 -6 94 -10 43
-4 86 -8 95 -10 9 -1 52 -6 96 -9 44 -4 103 -9 130 -11 186 -17 461 -30 870
-42 359 -10 3015 -10 3365 0 531 16 821 32 1100 62 25 2 72 7 105 11 124 12
386 51 538 79 134 25 333 75 452 113 28 9 52 17 55 17 54 14 203 68 279 102
361 161 585 310 835 559 299 297 514 658 659 1109 34 105 83 280 92 328 3 12
7 33 10 47 3 14 8 36 11 50 3 14 7 36 10 50 2 14 9 45 14 70 11 51 36 203 45
270 3 25 8 56 10 70 2 14 7 54 11 90 4 36 8 76 10 90 2 14 6 59 10 100 3 41 8
83 10 93 2 10 6 64 9 120 3 56 8 122 10 147 3 25 7 104 11 175 3 72 8 159 9
195 28 574 28 3587 0 4085 -2 39 -7 129 -10 200 -3 72 -8 146 -10 165 -1 19
-6 85 -10 145 -4 61 -8 117 -10 125 -1 8 -6 51 -10 95 -3 44 -8 94 -10 110 -6
48 -16 127 -21 160 -2 17 -6 46 -8 65 -36 289 -150 772 -226 955 -4 11 -18 47
-31 80 -26 71 -135 297 -180 375 -182 316 -460 616 -759 821 -74 50 -75 51
-191 119 -314 183 -753 326 -1244 404 -55 9 -111 18 -125 20 -21 4 -95 13
-250 31 -19 2 -53 6 -75 9 -22 3 -76 8 -120 11 -44 3 -102 8 -130 10 -161 14
-395 26 -780 41 -134 6 -3182 14 -3187 9z"/>
</g>
</svg>
